<?xml version="1.0" encoding="iso-8859-1"?>
<!-- Generator: Adobe Illustrator 16.0.0, SVG Export Plug-In . SVG Version: 6.00 Build 0)  -->
<!DOCTYPE svg PUBLIC "-//W3C//DTD SVG 1.1//EN" "http://www.w3.org/Graphics/SVG/1.1/DTD/svg11.dtd">
<svg version="1.1" id="Capa_1" xmlns="http://www.w3.org/2000/svg" xmlns:xlink="http://www.w3.org/1999/xlink" x="0px" y="0px"
	 width="612px" height="612px" viewBox="0 0 612 612" style="enable-background:new 0 0 612 612;" xml:space="preserve">
<g>
	<g>
		<path d="M0,306.39c0,55.219,41.338,101.035,95.639,109.882l19.139,1.529h106.599v-55.441H116.085l-12.685-1.001
			c-36.665-5.842-47.764-28.041-49.35-57.055c-1.53-27.735,24.703-52.465,70.436-68.238c0,0-33.771-44.982,0-73.245
			s82.537,24.591,82.537,24.591S268.14,71.242,358.993,79.755c137.116,12.88,126.323,164.6,126.323,164.6
			s71.381,12.212,71.381,59.948c0,53.272-60.782,58.056-60.782,58.056H391.374v55.441H497.25l19.111-1.529
			C570.662,407.425,612,361.608,612,306.39c0-48.515-31.936-89.825-76.527-105.097c-1.614-96.084-82.343-173.474-181.653-173.474
			c-71.632,0-133.583,40.253-163.181,98.754c-13.993-15.022-34.244-24.48-56.777-24.48c-42.256,0-76.5,33.271-76.5,74.274
			c0,10.71,2.336,20.892,6.509,30.071C26.038,224.66,0,262.576,0,306.39z"/>
		<polygon points="278.182,194.727 278.182,512.383 166.909,445.091 166.909,500.728 306,584.182 445.091,500.728 445.091,445.091 
			333.818,512.383 333.818,194.727 		"/>
	</g>
</g>
<g>
</g>
<g>
</g>
<g>
</g>
<g>
</g>
<g>
</g>
<g>
</g>
<g>
</g>
<g>
</g>
<g>
</g>
<g>
</g>
<g>
</g>
<g>
</g>
<g>
</g>
<g>
</g>
<g>
</g>
</svg>
